<?xml version="1.0" encoding="utf-8"?>
<!-- Generator: Adobe Illustrator 23.1.0, SVG Export Plug-In . SVG Version: 6.00 Build 0)  -->
<svg version="1.1" id="Layer_1" xmlns="http://www.w3.org/2000/svg" xmlns:xlink="http://www.w3.org/1999/xlink" x="0px" y="0px"
	 viewBox="0 0 991.5 948" style="enable-background:new 0 0 991.5 948;" xml:space="preserve">
<style type="text/css">
	.st0{fill:#D3D3D3;}
	.st1{fill:#D3D3D3;stroke:#000000;stroke-miterlimit:10;}
</style>
<g>
	<g>
		<g>
			<path class="st0" d="M925.6,137.6c-23.1-23.1-65.6-2.8-89.1,39.7c-10,18-19.1,38.3-24.5,57c-28.2-30.5-68.9-49.6-114.1-49.6
				c-85.1,0-154.1,67.7-154.1,151.3c0,33.3,10.9,64,29.4,89c-38,23-58,62.2-54.5,114.1l0,0c-23,19.9-37.4,48.7-37.4,80.8
				c0,60.2,51,109,113.8,109c62.9,0,113.8-48.8,113.8-109s-51-109-113.8-109c-4.1,0-8.1,0.2-12.1,0.6c1.4-16.4,12.8-38.4,42.6-41.7
				c21.5,11.2,46.1,17.6,72.2,17.6c85.1,0,154.1-67.7,154.1-151.3c0-13-1.7-25.7-4.8-37.8c20.4-2,42.9-16,68.3-41.4
				C951.9,220.5,948.7,160.7,925.6,137.6z M594,559.8c29.9,0,54.2,26.4,54.2,59s-24.3,59-54.2,59s-54.2-26.4-54.2-59
				S564.1,559.8,594,559.8z M696.6,422.7c-46.9,0-85-38.1-85-85s38.1-85,85-85s85,38.1,85,85S743.5,422.7,696.6,422.7z"/>
		</g>
		<path class="st0" d="M583.1,511.4c0,0.1,0,0.3,0,0.4"/>
		<path class="st0" d="M840.1,155.3c-18.5,28.3-42.1,39.9-61.3,35.8c-21.4-4.5-8.9-40.9,0.8-73.3c9.2-30.7,34-49.4,52.4-37.4
			S858.5,127,840.1,155.3z"/>
		<path class="st0" d="M764,131.5c-8.7,26.3-25.3,40.3-41.9,40.9c-18.5,0.7-16.5-30.8-15.9-58.6c0.6-26.3,16.6-46.2,34.3-40.4
			C758.1,79.3,772.7,105.2,764,131.5z"/>
		<path class="st0" d="M696.8,134.3c-7.2,21.8-13.5,37.9-28.3,38.1c-16.4,0.3-20.5-26.8-20.5-50c0-22,11.4-39.3,27.2-34.1
			S704,112.5,696.8,134.3z"/>
		<path class="st0" d="M640.1,165.5c-8.3,17.1-15.2,29.5-27.4,28c-13.5-1.6-14-24.2-11.4-43.2c2.4-18,13.6-30.9,26-24.9
			C639.7,131.4,648.4,148.4,640.1,165.5z"/>
	</g>
</g>
<g>
	<path class="st0" d="M244.5,866.4v-57.9h21.3c9,0,16,2.8,21,8.4c5,5.6,7.5,12.4,7.5,20.5c0,8.2-2.4,15.1-7.3,20.7
		c-4.9,5.6-11.1,8.4-18.5,8.4h-24V866.4z M252.4,860.3h12.9c6.8,0,12-2.2,15.6-6.5c3.5-4.3,5.3-10,5.3-17c0-5.7-1.7-10.9-5.1-15.4
		c-3.4-4.6-8.6-6.8-15.8-6.8h-12.9V860.3z"/>
	<path class="st0" d="M349.4,866.4h-8v-57.9h8V866.4z"/>
	<path class="st0" d="M447.6,837.2v30h-4.9l-2.2-7.3c-3.9,5.1-9.7,7.6-17.5,7.6c-8.4,0-14.9-2.9-19.6-8.6c-4.7-5.7-7-12.7-7-20.9
		c0-8.8,2.5-16.1,7.4-22s11.6-8.8,20.1-8.8c11.7,0,19.4,5.6,22.9,16.8l-7.5,1.7c-1.1-4.3-3.1-7.4-6.1-9.4s-6.2-2.9-9.8-2.9
		c-6.3,0-10.9,2.3-13.9,6.9s-4.5,10.4-4.5,17.4c0,7.5,1.7,13.4,5,17.6c3.3,4.2,7.9,6.4,13.6,6.4c4.5,0,8.2-1.4,11.2-4.1
		c3-2.7,4.5-6.4,4.5-11.2c0-0.9,0-1.9-0.1-3.1h-15.8v-6.1L447.6,837.2L447.6,837.2z"/>
	<path class="st0" d="M505.4,866.4h-8v-57.9h8V866.4z"/>
	<path class="st0" d="M575.7,866.4h-8v-51.6h-18.2v-6.4H594v6.4h-18.3V866.4z"/>
	<path class="st0" d="M675.2,866.4H667l-6.4-16.9H637l-5.7,16.9h-6.7l20.7-57.9h9L675.2,866.4z M658.9,844l-9.9-27.8l-9.8,27.8
		H658.9z"/>
	<path class="st0" d="M756.2,860v6.4h-37.6v-57.9h8.2V860H756.2z"/>
</g>
<path class="st0" d="M501.8,196.3h-64.2c-3.1,0-5.7-2.5-5.7-5.7V131c0-3.1,2.5-5.7,5.7-5.7h64.2c3.1,0,5.7,2.5,5.7,5.7v59.7
	C507.4,193.8,504.9,196.3,501.8,196.3z"/>
<path class="st0" d="M501.8,487.3h-64.2c-3.1,0-5.7-2.5-5.7-5.7V227.5c0-3.1,2.5-5.7,5.7-5.7h64.2c3.1,0,5.7,2.5,5.7,5.7v254.2
	C507.4,484.8,504.9,487.3,501.8,487.3z"/>
<path class="st0" d="M140.3,563.6V597c0,1.6,1.3,2.8,2.8,2.8h72.5c1.6,0,2.8,1.3,2.8,2.8V642c0,1.6-1.3,2.8-2.8,2.8h-72.5
	c-1.6,0-2.8,1.3-2.8,2.8V718c0,1.6-1.3,2.8-2.8,2.8H94.3c-1.6,0-2.8-1.3-2.8-2.8V520.1c0-1.6,1.3-2.8,2.8-2.8h141.2
	c1.6,0,2.8,1.3,2.8,2.8V558c0,1.6-1.3,2.8-2.8,2.8h-92.3C141.6,560.8,140.3,562.1,140.3,563.6z"/>
<g id="XMLID_2_">
	<g>
		<path class="st0" d="M358.3,510.8c62.1,0,112.4,48.8,112.4,109s-50.3,109-112.4,109s-112.4-48.8-112.4-109
			S296.2,510.8,358.3,510.8z M412.8,618.1c0-31.6-24.4-57.3-54.5-57.3s-54.5,25.6-54.5,57.3c0,31.6,24.4,57.3,54.5,57.3
			C388.4,675.3,412.8,649.7,412.8,618.1z"/>
	</g>
</g>
<path class="st0" d="M874.2,519.4v41.1c0,1.6-1.3,2.8-2.8,2.8H819c-1.6,0-2.8,1.3-2.8,2.8v155c0,1.6-1.3,2.8-2.8,2.8h-43.7
	c-1.6,0-2.8-1.3-2.8-2.8v-155c0-1.6-1.3-2.8-2.8-2.8h-50c-1.6,0-2.8-1.3-2.8-2.8v-41.1c0-1.6,1.3-2.8,2.8-2.8h157.3
	C872.9,516.6,874.2,517.8,874.2,519.4z"/>
<g>
	
		<rect x="279" y="275.1" transform="matrix(4.881795e-02 -0.9988 0.9988 4.881795e-02 -9.6898 540.9738)" class="st0" width="0.4" height="1"/>
</g>
<g>
	<path class="st1" d="M270.5,428.2"/>
</g>
<g>
	<path class="st1" d="M325.5,486.8"/>
</g>
<path class="st0" d="M346.7,282.7c43,24.1,63.6,58.9,59.8,106.9c-3.9,49.4-45.6,91.1-95.1,91.9c-67.9,1.2-135.7,0.2-203.6,0.5
	c-12.2,0-16.3-5.3-16.3-17c0.2-109.3,0.2-218.7,0-328c0-11.9,4.3-17,16.3-17c65.8,0.2,131.6-0.5,197.4,0.3
	c37.3,0.5,67.2,23.4,78.8,57.4c11.7,34.4,1.4,72.5-26.1,96.1C354.7,276.5,351.4,279,346.7,282.7z M225.9,420.1c0,0.1,0,0.1,0,0.2
	c11.9,0,23.8,0.2,35.7,0c26.9-0.5,47.8-21.7,48.2-48.7c0.4-27.1-19.7-49.8-46.3-50.7c-25.4-0.9-50.8-0.2-76.1-0.3
	c-9.5,0-14.6,4-14.6,13.9c0,23.8,0.1,47.7,0,71.5c0,9.7,4.7,14.2,14.3,14.2C200,420,212.9,420.1,225.9,420.1z M229,266.9
	c0,0.1,0,0.2,0,0.4c11.9,0,23.8-0.1,35.6,0c24.6,0.3,43.6-16.2,45.2-39.5c1.6-24.2-15.3-44.8-40.1-46c-27.3-1.3-54.7-0.4-82.1-0.4
	c-10,0-15.1,4.8-14.9,15.3c0.3,18.1,0.4,36.2,0,54.2c-0.2,11.4,5.4,15.9,16,15.9C202.1,266.9,215.6,266.9,229,266.9z"/>
</svg>
